<svg width="70" height="70" viewBox="0 0 70 70" fill="none" xmlns="http://www.w3.org/2000/svg">
<path d="M57.6082 58.9109H12.5586C12.2829 58.9109 12.0185 58.8014 11.8235 58.6065C11.6286 58.4115 11.519 58.1471 11.519 57.8713C11.519 44.703 22.0883 33.9604 35.0834 33.9604C48.0784 33.9604 58.6478 44.6892 58.6478 57.8713C58.6478 58.1471 58.5382 58.4115 58.3433 58.6065C58.1483 58.8014 57.8839 58.9109 57.6082 58.9109ZM13.626 56.8317H56.5477C56.0141 45.2713 46.5883 36.0397 35.0626 36.0397C23.5369 36.0397 14.1596 45.2713 13.626 56.8317Z" fill="black"/>
<path d="M35.3465 31.188C32.4679 31.188 29.6539 30.3344 27.2604 28.7352C24.867 27.1359 23.0015 24.8628 21.8999 22.2033C20.7983 19.5438 20.5101 16.6174 21.0717 13.7941C21.6332 10.9708 23.0194 8.37749 25.0549 6.34201C27.0904 4.30653 29.6837 2.92035 32.507 2.35877C35.3303 1.79718 38.2567 2.08541 40.9162 3.187C43.5757 4.28859 45.8488 6.15407 47.448 8.54754C49.0473 10.941 49.9009 13.755 49.9009 16.6336C49.9009 20.4936 48.3675 24.1956 45.638 26.9251C42.9085 29.6546 39.2065 31.188 35.3465 31.188ZM35.3465 4.15832C32.8791 4.15832 30.4671 4.88998 28.4156 6.26078C26.364 7.63157 24.765 9.57994 23.8208 11.8595C22.8766 14.139 22.6296 16.6474 23.1109 19.0674C23.5923 21.4873 24.7804 23.7102 26.5251 25.4549C28.2698 27.1996 30.4927 28.3877 32.9127 28.8691C35.3326 29.3505 37.841 29.1034 40.1205 28.1592C42.4001 27.215 44.3484 25.616 45.7192 23.5644C47.09 21.5129 47.8217 19.1009 47.8217 16.6336C47.8217 13.3249 46.5073 10.1518 44.1678 7.81223C41.8282 5.47267 38.6551 4.15832 35.3465 4.15832Z" fill="black"/>
<path d="M35.0833 43.8505C30.2956 43.8557 25.596 42.5623 21.4853 40.1079C21.264 39.9594 21.1081 39.7316 21.05 39.4715C20.9918 39.2114 21.0358 38.9389 21.1727 38.7102C21.3097 38.4816 21.5293 38.3143 21.7861 38.243C22.0429 38.1716 22.3173 38.2016 22.5526 38.3267C26.3418 40.5863 30.6715 41.7793 35.0833 41.7793C39.4951 41.7793 43.8248 40.5863 47.614 38.3267C47.7311 38.2481 47.8629 38.1942 48.0015 38.1682C48.1401 38.1422 48.2825 38.1447 48.4201 38.1754C48.5577 38.2062 48.6876 38.2646 48.8019 38.3472C48.9162 38.4297 49.0125 38.5347 49.085 38.6556C49.1575 38.7766 49.2046 38.911 49.2235 39.0507C49.2423 39.1905 49.2326 39.3326 49.1949 39.4684C49.1571 39.6042 49.0921 39.731 49.0038 39.8409C48.9155 39.9509 48.8058 40.0417 48.6813 40.1079C44.5706 42.5623 39.871 43.8557 35.0833 43.8505Z" fill="black"/>
<path d="M48.0988 13.4108C46.6292 13.4596 45.1659 13.1978 43.8044 12.6425C42.443 12.0871 41.214 11.2508 40.1978 10.188C38.6265 11.0792 36.9534 11.7773 35.2147 12.2672C30.7236 13.494 26.7107 12.8633 23.6057 10.4445C23.3879 10.2754 23.2462 10.0267 23.2118 9.75305C23.1773 9.47946 23.253 9.20338 23.4221 8.98556C23.5912 8.76774 23.8399 8.62602 24.1135 8.59158C24.3871 8.55714 24.6632 8.63279 24.881 8.8019C31.1186 13.6534 39.775 8.04645 39.8582 7.98408C39.9733 7.90696 40.1026 7.85362 40.2386 7.82719C40.3746 7.80077 40.5145 7.80179 40.6501 7.8302C40.7857 7.85861 40.9143 7.91383 41.0282 7.99263C41.1422 8.07142 41.2392 8.1722 41.3137 8.28903C41.3899 8.40685 43.3929 11.3524 48.0849 11.3524C48.3607 11.3524 48.6251 11.4619 48.8201 11.6569C49.015 11.8519 49.1245 12.1163 49.1245 12.392C49.1245 12.6677 49.015 12.9321 48.8201 13.1271C48.6251 13.3221 48.3607 13.4316 48.0849 13.4316L48.0988 13.4108Z" fill="black"/>
</svg>
