<?xml version="1.0" standalone="no"?>
<!DOCTYPE svg PUBLIC "-//W3C//DTD SVG 20010904//EN"
 "http://www.w3.org/TR/2001/REC-SVG-20010904/DTD/svg10.dtd">
<svg version="1.0" xmlns="http://www.w3.org/2000/svg"
 width="224.000000pt" height="292.000000pt" viewBox="0 0 224.000000 292.000000"
 preserveAspectRatio="xMidYMid meet">

<g transform="translate(0.000000,292.000000) scale(0.100000,-0.100000)"
fill="#000000" stroke="none">
<path d="M152 1463 l3 -1208 963 -3 962 -2 0 1210 0 1210 -965 0 -965 0 2
-1207z m1838 2 l0 -1115 -875 0 -875 0 0 1115 0 1115 875 0 875 0 0 -1115z"/>
<path d="M572 2104 c-12 -8 -22 -24 -22 -34 0 -10 10 -26 22 -34 20 -14 88
-16 540 -16 505 0 519 1 538 20 11 11 20 25 20 30 0 6 -9 19 -20 30 -19 19
-33 20 -538 20 -452 0 -520 -2 -540 -16z"/>
<path d="M1037 1660 c-59 -15 -115 -48 -162 -95 -54 -54 -80 -103 -95 -183
-14 -71 -4 -144 32 -218 l20 -41 -111 -159 c-61 -87 -111 -169 -111 -180 0
-44 23 -49 125 -27 l94 20 11 -56 c19 -102 29 -129 51 -136 32 -10 48 12 141
187 l84 157 88 -165 c48 -90 96 -169 107 -174 27 -15 56 3 63 37 3 16 10 56
17 89 l11 61 86 -19 c156 -35 170 -10 75 130 -37 53 -88 129 -115 167 l-49 70
28 60 c23 50 28 73 28 140 0 93 -27 164 -90 234 -74 82 -222 127 -328 101z
m190 -112 c91 -42 153 -158 138 -256 -15 -98 -84 -179 -176 -206 -65 -20 -83
-20 -145 -1 -150 44 -223 218 -148 356 68 124 204 168 331 107z m-258 -530
c36 -17 67 -33 69 -34 1 -1 -23 -50 -55 -110 l-57 -108 -12 48 c-14 53 -28 69
-59 62 -11 -3 -38 -8 -59 -12 l-40 -7 35 49 c20 27 51 70 69 97 18 26 35 47
38 47 2 0 34 -14 71 -32z m435 -60 c35 -51 63 -95 61 -96 -2 -2 -27 1 -56 7
-64 14 -83 1 -93 -61 -4 -22 -8 -39 -10 -37 -2 2 -29 51 -59 109 l-56 104 62
31 c34 18 67 33 74 33 7 1 41 -40 77 -90z"/>
</g>
</svg>
