<svg width="25" height="26" viewBox="0 0 25 26" fill="none" xmlns="http://www.w3.org/2000/svg">
<path d="M12.4998 26C5.60746 26 0 20.1686 0 13.0007C0 5.83203 5.60746 0 12.4998 0C15.2402 0 17.8574 0.919352 20.0682 2.65902C20.4985 2.99738 20.5885 3.64176 20.2692 4.09797C19.9505 4.55385 19.3431 4.65024 18.9127 4.31155C17.0387 2.83695 14.8211 2.05757 12.4998 2.05757C6.67704 2.05757 1.93969 6.96661 1.93969 13.0003C1.93969 19.0337 6.67704 23.9424 12.4998 23.9424C18.323 23.9424 23.0603 19.0337 23.0603 13.0003C23.0603 12.1553 22.9716 11.3336 22.797 10.5579C22.6729 10.0053 22.9943 9.45034 23.5153 9.3183C24.0344 9.18626 24.559 9.52726 24.6838 10.0802C24.8936 11.0124 25 11.9948 25 13.0007C24.9997 20.1686 19.3925 26 12.4998 26Z" fill="#231F20"/>
</svg>
