<svg width="85" height="53" viewBox="0 0 85 53" fill="none" xmlns="http://www.w3.org/2000/svg">
<path d="M0 37V1H15.4185C18.2514 1 20.6144 1.39258 22.5072 2.17773C24.4 2.96289 25.8228 4.05274 26.7755 5.44727C27.7282 6.83008 28.2045 8.42383 28.2045 10.2285C28.2045 11.6348 27.9036 12.8711 27.302 13.9375C26.7003 14.9922 25.8729 15.8594 24.82 16.5391C23.7795 17.207 22.5887 17.6816 21.2474 17.9629V18.3145C22.714 18.373 24.0866 18.7598 25.3652 19.4746C26.6564 20.1895 27.7031 21.1914 28.5053 22.4805C29.3076 23.7578 29.7087 25.2813 29.7087 27.0508C29.7087 28.9609 29.2011 30.666 28.1857 32.166C27.1829 33.6543 25.6974 34.832 23.7294 35.6992C21.7613 36.5664 19.3358 37 16.4526 37H0ZM8.1417 30.7773H14.7792C17.0481 30.7773 18.7027 30.373 19.7431 29.5645C20.7836 28.7441 21.3038 27.6543 21.3038 26.2949C21.3038 25.2988 21.0468 24.4199 20.5329 23.6582C20.0189 22.8965 19.2856 22.2988 18.3329 21.8652C17.3928 21.4316 16.2709 21.2148 14.9672 21.2148H8.1417V30.7773ZM8.1417 16.0645H14.1775C15.2931 16.0645 16.2834 15.8828 17.1483 15.5195C18.0258 15.1445 18.7153 14.6172 19.2167 13.9375C19.7306 13.2578 19.9876 12.4434 19.9876 11.4941C19.9876 10.1934 19.4924 9.14453 18.5022 8.34766C17.5244 7.55078 16.133 7.15234 14.3279 7.15234H8.1417V16.0645Z" fill="white"/>
<path d="M76.4145 12.8061C76.1526 11.9734 75.7848 11.2376 75.3109 10.5989C74.837 9.94867 74.2572 9.40114 73.5713 8.95627C72.898 8.5 72.1248 8.15209 71.2519 7.91255C70.3915 7.67301 69.4376 7.55323 68.3901 7.55323C66.4323 7.55323 64.7114 7.9981 63.2275 8.88783C61.7561 9.77757 60.6088 11.0722 59.7858 12.7719C58.9628 14.4601 58.5513 16.5247 58.5513 18.9658C58.5513 21.4068 58.9566 23.4829 59.7671 25.1939C60.5777 26.9049 61.7249 28.211 63.2088 29.1122C64.6927 30.0019 66.4448 30.4468 68.4649 30.4468C70.298 30.4468 71.863 30.1502 73.1598 29.557C74.4692 28.9525 75.4668 28.1027 76.1526 27.0076C76.8509 25.9125 77.2001 24.6179 77.2001 23.1236L78.8461 23.346H68.9699V17.7681H85V22.1825C85 25.2624 84.2892 27.9087 82.8677 30.1217C81.4461 32.3232 79.4883 34.0228 76.9943 35.2205C74.5003 36.4068 71.6447 37 68.4275 37C64.8361 37 61.6813 36.2757 58.9628 34.827C56.2444 33.3669 54.1245 31.2966 52.6031 28.616C51.0943 25.924 50.3398 22.73 50.3398 19.0342C50.3398 16.1939 50.7888 13.6616 51.6866 11.4373C52.5969 9.20152 53.8688 7.30799 55.5024 5.75666C57.136 4.20532 59.0376 3.02471 61.2074 2.21483C63.3772 1.40494 65.7277 1 68.2591 1C70.4289 1 72.449 1.29087 74.3195 1.87262C76.19 2.44297 77.8485 3.25285 79.295 4.30228C80.754 5.35171 81.9449 6.60076 82.8677 8.04943C83.7905 9.48669 84.3828 11.0722 84.6446 12.8061H76.4145Z" fill="white"/>
<path d="M0 41.4404V39H11.9853V41.4404H7.51751V53H4.46775V41.4404H0Z" fill="white"/>
<path d="M29.1675 39V53H26.0821V39H29.1675Z" fill="white"/>
<path d="M43.829 39H47.6341L51.6529 48.4062H51.8239L55.8428 39H59.6478V53H56.6551V43.8877H56.5339L52.7574 52.9316H50.7195L46.9429 43.8535H46.8218V53H43.829V39Z" fill="white"/>
<path d="M74.3129 53V39H84.1463V41.4404H77.3983V44.7764H83.6403V47.2168H77.3983V50.5596H84.1748V53H74.3129Z" fill="white"/>
<path d="M40.394 5.28444C40.6154 5.26212 40.7874 5.16631 40.91 4.99702C41.0325 4.82773 41.0938 4.59797 41.0938 4.30776C41.0938 4.11056 41.0664 3.94406 41.0115 3.80826C40.9584 3.67245 40.8843 3.56827 40.7892 3.49572C40.6941 3.42503 40.5861 3.38968 40.4654 3.38968C40.3648 3.38596 40.2769 3.40735 40.2019 3.45386C40.1269 3.50223 40.062 3.56827 40.0071 3.65199C39.954 3.7357 39.9074 3.83244 39.8671 3.9422C39.8287 4.05196 39.7958 4.16916 39.7683 4.29381L39.6476 4.80726C39.5927 5.05655 39.5195 5.28537 39.428 5.49373C39.3366 5.70209 39.2241 5.88254 39.0905 6.03509C38.9569 6.18764 38.7996 6.30577 38.6185 6.38949C38.4374 6.47506 38.2297 6.51878 37.9955 6.52064C37.6516 6.51878 37.3534 6.42949 37.1009 6.25275C36.8503 6.07788 36.6554 5.82487 36.5164 5.49373C36.3792 5.16445 36.3105 4.76727 36.3105 4.30218C36.3105 3.84081 36.3801 3.43898 36.5191 3.09667C36.6582 2.75623 36.864 2.4902 37.1366 2.29859C37.411 2.10883 37.7504 2.0093 38.1547 2V3.16923C37.9663 3.18225 37.8089 3.23713 37.6827 3.33387C37.5583 3.43247 37.4641 3.56362 37.4 3.72733C37.3378 3.8929 37.3067 4.07987 37.3067 4.28823C37.3067 4.49286 37.336 4.67053 37.3945 4.82122C37.4531 4.97376 37.5345 5.0919 37.6388 5.17561C37.7431 5.25933 37.8629 5.30119 37.9983 5.30119C38.1245 5.30119 38.2306 5.26305 38.3166 5.18677C38.4026 5.11236 38.4758 5.0026 38.5362 4.85749C38.5965 4.71425 38.6514 4.53844 38.7008 4.33008L38.8545 3.7078C38.9697 3.22597 39.15 2.84553 39.3951 2.56648C39.6403 2.28742 39.9705 2.14883 40.3858 2.15069C40.7261 2.14883 41.0234 2.24091 41.2777 2.42695C41.532 2.61484 41.7305 2.8725 41.8732 3.19992C42.0159 3.52734 42.0872 3.89941 42.0872 4.31613C42.0872 4.74029 42.0159 5.1105 41.8732 5.42676C41.7305 5.74488 41.532 5.99231 41.2777 6.16904C41.0234 6.34577 40.7288 6.43693 40.394 6.44251V5.28444Z" fill="white"/>
<path d="M36.3901 7.33338H42.0104V11.1843H41.0307V8.54168H39.6915V10.9862H38.7118V8.54168H37.3698V11.1955H36.3901V7.33338Z" fill="white"/>
<path d="M36.3901 12.1449H42.0104V14.3997C42.0104 14.8313 41.9345 15.1996 41.7826 15.5047C41.6326 15.8117 41.4195 16.0452 41.1432 16.2051C40.8688 16.367 40.5459 16.4479 40.1745 16.4479C39.8013 16.4479 39.4802 16.3661 39.2112 16.2024C38.9441 16.0386 38.7392 15.8014 38.5965 15.4908C38.4538 15.182 38.3825 14.808 38.3825 14.369V12.8593H39.3375V14.1736C39.3375 14.4043 39.3686 14.5959 39.4308 14.7485C39.493 14.901 39.5863 15.0145 39.7107 15.0889C39.8351 15.1652 39.9897 15.2033 40.1745 15.2033C40.3611 15.2033 40.5184 15.1652 40.6465 15.0889C40.7746 15.0145 40.8715 14.9001 40.9374 14.7457C41.0051 14.5932 41.0389 14.4006 41.0389 14.1681V13.3532H36.3901V12.1449ZM38.9478 15.2313L36.3901 16.6516V15.3178L38.9478 13.9281V15.2313Z" fill="white"/>
<path d="M42.0104 18.1808L37.7403 19.5621V19.6152L42.0104 20.9993V22.3387L36.3901 20.3686V18.8115L42.0104 16.8386V18.1808Z" fill="white"/>
<path d="M42.0104 24.2349H36.3901V23.0266H42.0104V24.2349Z" fill="white"/>
<path d="M40.0428 30.2715V29.0492C40.1983 29.0269 40.3364 28.9813 40.4571 28.9125C40.5797 28.8436 40.684 28.7553 40.77 28.6474C40.856 28.5395 40.9218 28.4148 40.9676 28.2734C41.0133 28.1339 41.0362 27.9823 41.0362 27.8186C41.0362 27.5228 40.9639 27.2651 40.8194 27.0456C40.6767 26.8261 40.4681 26.6559 40.1937 26.535C39.9211 26.414 39.59 26.3536 39.2003 26.3536C38.7996 26.3536 38.463 26.414 38.1904 26.535C37.9178 26.6577 37.712 26.8289 37.5729 27.0484C37.4339 27.2679 37.3643 27.5219 37.3643 27.8102C37.3643 27.9721 37.3854 28.1218 37.4275 28.2595C37.4695 28.399 37.5308 28.5227 37.6113 28.6306C37.6937 28.7385 37.7934 28.8278 37.9105 28.8985C38.0275 28.9711 38.1611 29.0213 38.3111 29.0492L38.3056 30.2715C38.0477 30.2398 37.7989 30.1608 37.5592 30.0343C37.3214 29.9096 37.1082 29.7413 36.9198 29.5292C36.7332 29.319 36.585 29.0678 36.4752 28.7757C36.3673 28.4855 36.3133 28.1572 36.3133 27.7907C36.3133 27.281 36.4267 26.8252 36.6536 26.4233C36.8804 26.0234 37.2088 25.7071 37.6388 25.4746C38.0687 25.2439 38.5892 25.1285 39.2003 25.1285C39.8132 25.1285 40.3346 25.2457 40.7645 25.4801C41.1944 25.7145 41.5219 26.0327 41.747 26.4345C41.9738 26.8363 42.0872 27.2884 42.0872 27.7907C42.0872 28.1218 42.0415 28.4288 41.95 28.7116C41.8586 28.9962 41.725 29.2483 41.5494 29.4678C41.3756 29.6873 41.1624 29.8659 40.91 30.0036C40.6575 30.1431 40.3684 30.2324 40.0428 30.2715Z" fill="white"/>
<path d="M36.3901 31.1379H42.0104V34.9888H41.0307V32.3462H39.6915V34.7907H38.7118V32.3462H37.3698V35H36.3901V31.1379Z" fill="white"/>
<path d="M34.585 0.75H43.8131V36.25H34.585V0.75Z" stroke="white" stroke-width="1.5"/>
</svg>
