<svg width="70" height="70" viewBox="0 0 70 70" fill="none" xmlns="http://www.w3.org/2000/svg">
<path d="M40.6176 48.8226L51.0758 32.0062C51.11 31.9518 51.1386 31.8946 51.1609 31.8353C52.9669 28.8902 53.9204 25.526 53.9204 22.0913C53.9204 11.7871 45.5374 3.40405 35.2334 3.40405C24.9293 3.40405 16.5456 11.7871 16.5456 22.0913C16.5456 25.5267 17.5005 28.8923 19.3079 31.8395C19.3288 31.8911 19.3532 31.9413 19.3825 31.9901L29.4654 48.8644C21.6383 49.9707 16.4912 53.1892 16.4912 57.0934C16.4912 61.9308 24.7117 65.7192 35.2055 65.7192C45.6992 65.7192 53.9197 61.9301 53.9197 57.0934C53.9204 53.1711 48.5333 49.8808 40.6176 48.8226ZM21.1863 30.8971C19.5192 28.2436 18.6382 25.1988 18.6382 22.0913C18.6382 12.9409 26.0824 5.49669 35.2334 5.49669C44.3836 5.49669 51.8278 12.9409 51.8278 22.0913C51.8278 25.2002 50.9468 28.245 49.2804 30.8971C49.2455 30.9529 49.2169 31.0108 49.1939 31.0708L38.1449 48.8351C37.9789 49.0897 37.9461 49.1476 37.7431 49.4811L34.9529 53.9677L21.2798 31.0854C21.2554 31.0205 21.224 30.9571 21.1863 30.8971ZM35.2061 63.6266C25.4106 63.6266 18.5845 60.1828 18.5845 57.0934C18.5845 54.2892 23.7254 51.6469 30.6401 50.8287L34.0371 56.5144C34.2247 56.8276 34.5609 57.0208 34.9257 57.0236C34.9285 57.0236 34.932 57.0236 34.9348 57.0236C35.2961 57.0236 35.6323 56.8367 35.8235 56.5298L39.3949 50.7876C46.4198 51.5486 51.8271 54.2578 51.8271 57.0934C51.8278 60.1835 45.0017 63.6266 35.2061 63.6266Z" fill="black"/>
<path d="M42.0011 22.0912C42.0011 18.3447 38.9528 15.2964 35.2063 15.2964C31.4599 15.2964 28.4116 18.3447 28.4116 22.0912C28.4116 25.8377 31.4599 28.886 35.2063 28.886C38.9528 28.886 42.0011 25.8377 42.0011 22.0912ZM30.5042 22.0912C30.5042 19.4984 32.6136 17.389 35.2063 17.389C37.7991 17.389 39.9084 19.4984 39.9084 22.0912C39.9084 24.6839 37.7998 26.7933 35.2063 26.7933C32.6129 26.7933 30.5042 24.6839 30.5042 22.0912Z" fill="black"/>
</svg>
