<svg width="15" height="15" viewBox="0 0 15 15" fill="none" xmlns="http://www.w3.org/2000/svg">
<g clip-path="url(#clip0_2319_1614)">
<path d="M14.3209 13.0923C14.0656 13.5935 13.5549 13.8441 13.0442 14.0947C12.4059 14.4706 11.8953 14.5959 11.257 14.5959C10.3633 14.5959 9.46966 14.22 8.70368 13.9694C8.06536 13.7188 7.55471 13.4682 6.91639 13.2176C5.1291 12.09 3.08648 10.0853 2.06517 8.45643C1.68218 7.82996 1.42685 7.32878 1.17152 6.70231C0.916194 5.82525 0.533203 5.07349 0.533203 4.07113C0.533203 3.44466 0.660867 2.81819 1.04386 2.19172C1.29919 1.69054 1.55451 1.18936 2.06517 0.938771C2.44816 0.938771 3.08648 0.813477 3.46947 0.813477C3.59713 0.813477 3.59713 0.813477 3.7248 0.813477C3.98012 0.938771 4.10779 1.31465 4.23545 1.56524C4.49078 2.19172 4.87377 2.69289 5.1291 3.31936C5.38442 3.56995 5.63975 3.82054 5.63975 4.07113C5.63975 4.6976 3.85246 5.57466 3.85246 6.07584C3.85246 6.32643 4.10779 6.70231 4.23545 6.9529C5.25676 8.70702 6.5334 9.95997 8.32069 10.9623C8.57602 11.0876 8.95901 11.3382 9.21434 11.3382C9.72499 11.3382 10.6186 9.58408 11.257 9.58408C11.5123 9.58408 11.7676 9.83467 12.0229 10.0853C12.5336 10.4611 13.1719 10.7117 13.6826 11.0876C13.9379 11.2129 14.3209 11.3382 14.4485 11.5888C14.4485 11.7141 14.4485 11.7141 14.4485 11.8394C14.5762 12.09 14.4486 12.7164 14.3209 13.0923Z" fill="white"/>
</g>
<defs>
<clipPath id="clip0_2319_1614">
<rect width="14.043" height="13.7824" fill="white" transform="translate(0.533203 0.626953)"/>
</clipPath>
</defs>
</svg>
