<svg width="37" height="37" viewBox="0 0 37 37" fill="none" xmlns="http://www.w3.org/2000/svg">
<g clip-path="url(#clip0_2319_1746)">
<g clip-path="url(#clip1_2319_1746)">
<path d="M18.5 37C28.7184 37 37 28.7184 37 18.5C37 8.28164 28.7184 0 18.5 0C8.28164 0 0 8.28164 0 18.5C0 28.7184 8.28164 37 18.5 37ZM8.4623 18.1025L26.3047 11.2229C27.1357 10.9266 27.8584 11.4252 27.5838 12.6754L24.5486 26.984C24.3246 27.9957 23.7176 28.2486 22.8793 27.7645L18.2543 24.3535L16.0213 26.4998C15.7756 26.7455 15.566 26.9551 15.0891 26.9551L15.4143 22.2506L23.9922 14.5109C24.368 14.1857 23.9055 13.9979 23.4141 14.323L12.8199 20.9932L8.25273 19.5695C7.2627 19.2516 7.24102 18.5795 8.4623 18.1025Z" fill="white"/>
</g>
</g>
<defs>
<clipPath id="clip0_2319_1746">
<rect width="37" height="37" fill="white"/>
</clipPath>
<clipPath id="clip1_2319_1746">
<rect width="37" height="37" fill="white"/>
</clipPath>
</defs>
</svg>
