<svg width="37" height="37" viewBox="0 0 37 37" fill="none" xmlns="http://www.w3.org/2000/svg">
<path fill-rule="evenodd" clip-rule="evenodd" d="M18.5 37C28.7173 37 37 28.7173 37 18.5C37 8.28275 28.7173 0 18.5 0C8.28275 0 0 8.28275 0 18.5C0 28.7173 8.28275 37 18.5 37ZM25.8122 10.7273C23.9084 8.82117 21.3763 7.771 18.6788 7.77C13.1208 7.77 8.5968 12.2933 8.5948 17.8533C8.59414 19.6306 9.05845 21.3655 9.94072 22.8945L8.51 28.12L13.8556 26.7179C15.3284 27.5214 16.987 27.9447 18.6744 27.9454H18.6785C24.2361 27.9454 28.7601 23.4214 28.7624 17.8617C28.7641 15.1669 27.7163 12.6335 25.8122 10.7273ZM18.6791 26.2421H18.6757C17.1717 26.2414 15.6965 25.8373 14.4098 25.0738L14.1037 24.8922L10.9313 25.7243L11.7779 22.6313L11.5787 22.314C10.7398 20.9796 10.2967 19.4375 10.2974 17.8536C10.2991 13.2324 14.0592 9.47293 18.6821 9.47293C20.9208 9.47359 23.0251 10.3468 24.6076 11.9309C26.19 13.5151 27.0608 15.6208 27.0602 17.8604C27.0585 22.4823 23.2986 26.2421 18.6791 26.2421ZM23.2762 19.9648C23.0241 19.8386 21.7856 19.2292 21.5544 19.1451C21.3236 19.061 21.1553 19.0189 20.9874 19.2713C20.8195 19.5236 20.3367 20.0909 20.1896 20.2592C20.0426 20.4274 19.8956 20.4483 19.6439 20.3221C19.6027 20.3015 19.5465 20.2771 19.4771 20.247C19.1223 20.0931 18.4225 19.7896 17.6176 19.0714C16.8686 18.4031 16.3628 17.5781 16.2158 17.3261C16.0688 17.0737 16.2 16.9375 16.3262 16.8119C16.4018 16.7365 16.4887 16.6307 16.5755 16.5249C16.6188 16.4722 16.6621 16.4194 16.704 16.3705C16.8108 16.2458 16.8572 16.1511 16.9202 16.0228C16.9315 15.9998 16.9433 15.9757 16.9561 15.9502C17.0402 15.782 16.9981 15.6349 16.9352 15.5087C16.8932 15.4244 16.6544 14.8432 16.4378 14.3162C16.3301 14.0541 16.228 13.8054 16.1583 13.6379C15.9776 13.2042 15.7947 13.2053 15.6478 13.2062C15.6283 13.2063 15.6094 13.2064 15.5913 13.2055C15.4446 13.1981 15.2763 13.1968 15.1084 13.1968C14.9405 13.1968 14.6677 13.2597 14.4365 13.5121C14.4216 13.5283 14.405 13.5461 14.3869 13.5654C14.1243 13.8457 13.5546 14.454 13.5546 15.6141C13.5546 16.8513 14.4529 18.0467 14.5826 18.2192L14.5836 18.2204C14.5917 18.2314 14.6064 18.2524 14.6273 18.2825C14.9281 18.7139 16.5248 21.0046 18.8878 22.025C19.4891 22.2848 19.9581 22.4396 20.3242 22.5556C20.9279 22.7475 21.477 22.7205 21.9114 22.6556C22.3956 22.5832 23.402 22.0462 23.612 21.4577C23.8219 20.8692 23.8219 20.3645 23.759 20.2595C23.7083 20.1745 23.5892 20.1169 23.4127 20.0316C23.3704 20.0112 23.3248 19.9891 23.2762 19.9648Z" fill="black"/>
</svg>
